# xmcd CD database file
#
# Track frame offsets:
#	150
#	2298
#	19759
#	35545
#	49924
#	67530
#	83817
#	102009
#	121051
#	138022
#	155975
#	174856
#	191809
#	208126
#	226753
#	243440
#	265738
#	280323
#
# Disc length: 3999 seconds
#
# Revision: 8
# Processed by: cddbd v1.5.1PL0 Copyright (c) Steve Scherf et al.
# Submitted via: CDex 1.51
#
DISCID=e10f9d12
DTITLE=Zezé di Camargo and Luciano - Pra Mudar a Minha Vida
DYEAR=2003
DGENRE=Sertanejo
TTITLE0=Intro
TTITLE1=Pra Mudar Minha Vida
TTITLE2=Nosso Amor É Ouro
TTITLE3=Meu Coração Mandou
TTITLE4=Demorou Demais
TTITLE5=Pra Sempre
TTITLE6=Uma Grande Mentira
TTITLE7=Irmão Da Lua, Amigo Das Estrelas
TTITLE8=Tristeza Do Jeca
TTITLE9=Galera Felicidade
TTITLE10=Não Dá Mais
TTITLE11=Esse Cara Não Existe Mais
TTITLE12=Deu Ocupado De Novo
TTITLE13=Eu Amo
TTITLE14=Toneladas De Paixão
TTITLE15=Não Era Pra Ser Assim
TTITLE16=Mexe Que Mexe
TTITLE17=Bebedeira
EXTD=YEAR: 2003
EXTT0=
EXTT1=
EXTT2=
EXTT3=
EXTT4=
EXTT5=
EXTT6=
EXTT7=
EXTT8=
EXTT9=
EXTT10=
EXTT11=
EXTT12=
EXTT13=
EXTT14=
EXTT15=
EXTT16=
EXTT17=
PLAYORDER=
